<?xml version="1.0" standalone="no"?>
<!DOCTYPE svg PUBLIC "-//W3C//DTD SVG 20010904//EN"
 "http://www.w3.org/TR/2001/REC-SVG-20010904/DTD/svg10.dtd">
<svg version="1.0" xmlns="http://www.w3.org/2000/svg"
 width="500.000000pt" height="500.000000pt" viewBox="0 0 500.000000 500.000000"
 preserveAspectRatio="xMidYMid meet">

<g transform="translate(0.000000,500.000000) scale(0.100000,-0.100000)"
fill="#000000" stroke="none">
<path d="M2105 4774 l-28 -36 29 -24 c55 -46 60 -47 88 -13 14 17 26 34 26 39
0 8 -73 70 -83 70 -2 0 -17 -16 -32 -36z"/>
<path d="M3345 4791 c-48 -29 -113 -106 -124 -147 -30 -108 1 -145 142 -169
20 -3 37 -10 37 -16 0 -17 -124 -69 -176 -75 -60 -6 -108 16 -142 66 -21 31
-23 44 -19 108 3 63 2 72 -12 70 -33 -6 -53 -160 -30 -229 40 -118 159 -160
292 -101 93 41 147 112 147 191 0 58 -23 80 -105 97 -39 8 -76 21 -84 29 -13
12 -10 19 23 50 61 57 109 59 129 5 6 -17 14 -30 18 -30 13 0 32 62 31 97 -3
69 -62 94 -127 54z"/>
<path d="M2264 4599 l-27 -44 17 -45 c10 -25 25 -69 33 -97 15 -50 15 -54 -3
-74 -30 -34 -94 -59 -151 -59 -97 0 -152 80 -120 177 12 36 13 49 4 55 -18 11
-33 -15 -53 -89 -25 -93 -10 -163 45 -215 68 -64 187 -59 273 12 71 59 91 192
49 327 -31 101 -34 103 -67 52z"/>
<path d="M1378 4592 c-40 -49 -41 -48 3 -78 l41 -28 25 28 24 28 -23 25 c-36
39 -53 45 -70 25z"/>
<path d="M2530 4531 c-11 -22 -24 -59 -29 -82 -19 -85 45 -166 161 -205 107
-35 272 -4 314 61 53 81 -96 204 -197 162 -50 -20 -62 -41 -69 -115 l-6 -67
-51 51 c-60 61 -89 132 -78 194 9 54 -17 55 -45 1z m360 -134 c13 -24 13 -30
0 -54 -8 -15 -30 -36 -48 -46 l-32 -19 0 47 c0 46 13 83 34 97 17 11 29 4 46
-25z"/>
<path d="M3915 4461 l-25 -49 35 -58 c19 -32 35 -68 35 -81 0 -27 -79 -117
-122 -139 -15 -8 -50 -14 -78 -14 -43 0 -51 -3 -48 -17 4 -22 80 -52 133 -52
88 -2 148 73 165 204 7 55 7 90 -1 119 -11 42 -56 136 -64 136 -3 0 -16 -22
-30 -49z"/>
<path d="M1426 4430 c-67 -20 -125 -115 -112 -184 4 -19 20 -49 36 -66 l29
-31 -29 -40 c-29 -41 -56 -138 -46 -165 8 -20 -1 -18 -40 13 l-35 26 -24 -29
c-14 -16 -24 -32 -25 -35 0 -9 67 -59 79 -59 6 0 20 14 30 31 l19 30 10 -28
c25 -72 118 -123 225 -123 59 0 97 17 157 70 l45 39 -111 1 c-131 0 -200 17
-243 61 -40 40 -41 77 -1 122 30 35 110 82 192 112 42 15 47 21 58 62 6 25 9
47 7 50 -3 2 -44 -12 -92 -31 -81 -33 -89 -34 -115 -21 -16 8 -38 27 -50 42
l-21 28 21 17 c34 27 91 39 130 28 45 -13 50 -13 50 4 0 15 -64 76 -80 76 -4
0 -14 2 -22 4 -7 2 -26 0 -42 -4z"/>
<path d="M3481 4399 c-23 -50 -20 -59 22 -83 44 -25 105 -85 124 -120 18 -35
12 -40 -61 -56 -63 -14 -113 1 -122 36 -4 15 -13 24 -25 24 -40 0 -15 -135 29
-159 12 -6 45 -11 75 -11 73 0 138 34 154 81 36 104 -11 211 -131 297 l-46 33
-19 -42z"/>
<path d="M2101 4393 l-23 -36 23 -19 c49 -39 56 -40 78 -12 12 15 21 30 21 34
0 7 -66 70 -73 70 -1 0 -13 -17 -26 -37z"/>
<path d="M1075 4378 c-19 -48 -23 -42 77 -114 24 -17 53 -50 66 -73 l24 -41
-36 -15 c-51 -21 -129 -20 -149 3 -10 10 -17 26 -17 35 0 10 -8 17 -20 17 -17
0 -20 -7 -20 -44 0 -93 38 -137 117 -135 53 0 122 29 145 60 43 57 32 166 -25
234 -31 38 -123 115 -137 115 -4 0 -15 -19 -25 -42z"/>
<path d="M1758 4365 c-35 -19 -63 -67 -81 -138 -9 -32 -22 -68 -30 -81 -19
-29 -100 -83 -189 -127 -38 -18 -68 -36 -68 -40 0 -4 27 -10 60 -14 109 -13
231 52 246 131 3 19 8 34 9 34 2 0 23 -11 46 -25 128 -73 211 15 164 172 -26
87 -91 123 -157 88z m63 -85 c21 -12 49 -60 49 -86 0 -23 -56 -14 -104 18 -42
27 -43 31 -16 58 22 22 42 25 71 10z"/>
<path d="M2403 4326 l-22 -34 39 -31 38 -31 27 32 27 32 -37 33 c-21 18 -41
33 -44 33 -3 0 -16 -15 -28 -34z"/>
<path d="M3714 4309 l-29 -31 34 -29 35 -29 23 22 c30 28 29 39 -5 71 l-28 27
-30 -31z"/>
<path d="M3831 4312 l-20 -29 33 -32 32 -31 22 23 c12 13 22 28 22 33 0 11
-52 64 -62 64 -4 0 -16 -13 -27 -28z"/>
<path d="M3451 4261 l-21 -29 37 -28 36 -27 19 22 c24 31 23 46 -8 70 -34 27
-39 27 -63 -8z"/>
<path d="M3218 4233 c-21 -8 -38 -18 -38 -23 0 -4 18 -14 40 -23 39 -15 40
-16 39 -64 -1 -26 -4 -59 -8 -73 -6 -23 -8 -22 -33 20 -89 151 -249 200 -379
115 -58 -37 -83 -101 -83 -211 l-1 -92 46 -58 c25 -32 50 -59 55 -61 5 -2 9
54 9 130 0 122 2 136 26 182 29 56 78 95 120 95 40 0 104 -60 138 -129 28 -56
41 -91 61 -168 8 -31 19 -47 40 -58 45 -23 50 -19 50 40 0 35 11 86 30 142 47
134 37 203 -34 237 -40 19 -32 19 -78 -1z"/>
<path d="M2556 4212 c-25 -27 -26 -31 -16 -77 14 -61 2 -77 -38 -55 -22 13
-28 24 -30 58 -2 23 -5 42 -8 42 -20 0 -42 -24 -48 -51 -8 -44 -23 -59 -58
-59 -30 0 -34 7 -70 100 -9 24 -9 24 -39 -21 l-29 -46 32 -62 c41 -80 34 -104
-42 -144 -89 -47 -175 -26 -207 51 -15 36 -14 51 8 131 2 8 -3 16 -13 18 -12
3 -20 -9 -31 -44 -23 -74 -26 -104 -15 -156 26 -125 153 -173 273 -102 48 28
68 54 86 113 9 32 18 42 40 47 15 4 39 15 52 26 21 16 27 17 36 5 17 -20 56
-28 85 -16 32 12 75 76 83 123 6 41 -5 147 -16 147 -4 0 -20 -13 -35 -28z"/>
<path d="M2639 4159 l-22 -32 34 -28 c41 -34 55 -33 77 4 17 28 17 29 -18 58
-19 16 -37 29 -41 29 -4 0 -18 -14 -30 -31z"/>
<path d="M2952 4092 c-17 -22 -29 -42 -25 -45 3 -4 8 -116 12 -249 l6 -243 30
44 30 45 0 233 c0 154 -4 236 -11 243 -8 8 -20 0 -42 -28z"/>
<path d="M2104 4094 c-16 -8 -38 -28 -48 -45 -16 -28 -17 -32 -1 -55 10 -15
13 -33 9 -46 -5 -18 -3 -20 12 -13 11 4 43 13 72 19 48 11 71 27 72 49 0 4
-18 7 -39 7 -50 0 -94 16 -89 33 6 15 58 22 58 8 0 -18 19 -12 30 8 7 15 6 23
-6 35 -19 20 -31 20 -70 0z"/>
<path d="M3050 4049 c-12 -16 -21 -31 -19 -33 2 -1 17 -12 33 -24 36 -28 42
-28 62 3 16 24 16 27 -2 46 -36 40 -51 42 -74 8z"/>
<path d="M1704 4015 c-15 -20 -25 -37 -23 -38 2 -2 20 -15 40 -29 l36 -27 20
22 c35 38 34 44 -6 76 l-40 32 -27 -36z"/>
<path d="M1861 3946 c-26 -26 -31 -39 -26 -57 4 -12 10 -124 14 -248 l6 -226
28 41 c23 34 29 56 34 125 6 96 -6 399 -16 399 -4 0 -22 -15 -40 -34z"/>
<path d="M3821 3944 l-24 -35 34 -29 c42 -36 52 -37 73 -5 21 32 20 43 -6 66
-46 39 -52 40 -77 3z"/>
<path d="M3627 3935 c-15 -22 -27 -44 -27 -50 0 -5 11 -32 25 -59 14 -28 21
-54 17 -58 -20 -20 -161 -39 -262 -36 -121 3 -169 22 -208 79 -20 29 -23 42
-18 87 6 47 4 53 -10 50 -24 -4 -42 -62 -43 -133 -1 -87 26 -131 104 -170 57
-28 66 -30 175 -29 100 1 126 5 200 30 81 27 86 31 108 74 29 57 26 122 -9
200 l-25 55 -27 -40z"/>
<path d="M3486 3906 l-26 -35 37 -35 c42 -38 43 -38 72 3 l20 28 -38 37 -38
37 -27 -35z"/>
<path d="M1034 3898 c-28 -32 -29 -36 -23 -98 4 -36 7 -148 8 -250 l2 -185 24
28 c13 15 29 44 34 65 18 63 10 472 -9 472 -3 0 -19 -15 -36 -32z"/>
<path d="M3357 3902 c-15 -15 -27 -32 -26 -38 0 -5 16 -22 35 -38 l35 -29 24
23 c33 31 31 40 -8 78 l-33 32 -27 -28z"/>
<path d="M1194 3836 c-56 -25 -85 -93 -48 -114 14 -8 14 -13 4 -32 -11 -21
-11 -22 11 -16 13 4 46 13 73 20 30 7 55 21 64 34 14 22 14 22 -35 22 -52 0
-91 19 -79 38 9 15 39 15 53 1 14 -14 33 -3 33 20 0 19 -19 41 -34 41 -6 -1
-25 -7 -42 -14z"/>
<path d="M2302 3750 c-12 -16 -22 -31 -22 -33 0 -2 19 -17 41 -33 l41 -28 19
23 c11 13 19 29 19 36 0 13 -55 65 -69 65 -4 0 -17 -13 -29 -30z"/>
<path d="M2771 3671 c-12 -16 -21 -33 -21 -39 0 -9 63 -62 74 -62 2 0 14 14
26 30 24 34 20 44 -31 81 l-27 19 -21 -29z"/>
<path d="M1689 3624 l-22 -37 34 -28 c39 -33 46 -32 72 4 23 29 17 41 -34 78
l-27 19 -23 -36z"/>
<path d="M2514 3521 c-42 -25 -72 -66 -85 -113 -14 -52 -4 -92 31 -126 l28
-29 -31 -48 c-27 -41 -32 -60 -35 -120 -6 -109 36 -171 132 -200 81 -24 154
-20 202 13 59 40 94 69 94 78 0 5 -53 9 -118 9 -134 0 -195 17 -237 66 -45 54
-28 98 59 153 28 18 80 44 116 59 62 24 66 28 82 74 21 61 14 63 -81 23 -41
-16 -80 -30 -89 -30 -25 0 -81 40 -88 62 -13 43 78 78 145 55 32 -12 41 -12
45 -1 12 31 -70 94 -121 94 -10 0 -32 -9 -49 -19z"/>
<path d="M3703 3300 c-13 -15 -23 -32 -22 -37 0 -4 16 -21 35 -37 l35 -29 24
23 c14 13 25 29 25 35 0 11 -61 76 -70 74 -3 0 -15 -13 -27 -29z"/>
<path d="M3942 3197 l-33 -34 11 -179 c6 -98 8 -210 4 -248 -8 -81 7 -87 44
-16 21 42 22 56 21 240 0 107 -3 212 -7 233 l-7 38 -33 -34z"/>
<path d="M3675 3130 c-28 -11 -72 -60 -84 -93 -19 -49 -14 -113 12 -142 27
-31 86 -47 146 -39 55 8 53 -7 -8 -53 -46 -36 -125 -63 -181 -63 -51 0 -121
38 -144 79 -21 36 -27 113 -13 162 10 39 -20 48 -34 11 -17 -43 -23 -172 -10
-220 18 -65 76 -117 145 -132 128 -26 302 68 322 176 21 113 -24 277 -85 308
-34 18 -38 18 -66 6z m68 -121 c41 -44 36 -59 -18 -59 -49 0 -105 23 -105 43
1 30 44 59 75 51 11 -3 32 -19 48 -35z"/>
<path d="M1101 3033 c-75 -37 -113 -151 -72 -216 12 -19 28 -37 36 -41 11 -4
7 -17 -20 -61 -77 -129 -48 -254 73 -307 48 -22 167 -27 198 -10 44 26 45 27
33 60 -11 31 -13 32 -68 32 -81 0 -158 25 -198 65 -42 42 -42 74 -2 120 29 33
194 125 225 125 12 0 34 56 34 88 0 16 -16 12 -110 -29 -57 -24 -67 -26 -90
-14 -39 20 -73 62 -66 80 13 35 107 56 160 35 14 -5 28 -5 31 -1 8 14 -36 63
-71 77 -42 18 -51 17 -93 -3z"/>
<path d="M3193 2965 c-13 -19 -23 -36 -23 -38 0 -2 20 -18 44 -35 l45 -32 28
36 27 37 -38 33 c-22 19 -44 34 -50 34 -6 0 -21 -16 -33 -35z"/>
<path d="M2707 1966 c-29 -27 -47 -64 -47 -97 0 -16 7 -19 45 -19 67 0 54 -29
-13 -31 -15 0 -36 -4 -47 -8 -18 -7 -17 -10 14 -25 22 -12 44 -16 66 -12 38 8
52 22 65 66 7 25 5 35 -11 51 -10 10 -31 19 -46 19 -21 0 -24 3 -15 12 6 6 22
12 34 13 17 1 23 8 23 26 0 34 -34 36 -68 5z"/>
<path d="M2011 1504 c-26 -44 -26 -41 4 -105 29 -64 31 -63 -96 -85 -174 -30
-315 -3 -361 70 -14 23 -18 44 -15 83 2 38 0 54 -10 57 -20 8 -36 -39 -41
-124 -3 -66 -1 -79 20 -110 49 -72 117 -100 244 -100 95 0 167 12 245 41 49
18 59 26 75 62 26 56 24 130 -5 195 -13 28 -27 52 -31 52 -5 0 -17 -16 -29
-36z"/>
</g>
</svg>
