<?xml version="1.0" standalone="no"?>
<!DOCTYPE svg PUBLIC "-//W3C//DTD SVG 20010904//EN"
 "http://www.w3.org/TR/2001/REC-SVG-20010904/DTD/svg10.dtd">
<svg version="1.0" xmlns="http://www.w3.org/2000/svg"
 width="500.000000pt" height="500.000000pt" viewBox="0 0 500.000000 500.000000"
 preserveAspectRatio="xMidYMid meet">

<g transform="translate(0.000000,500.000000) scale(0.100000,-0.100000)"
fill="#000000" stroke="none">
<path d="M1338 4989 c-10 -5 -18 -15 -18 -21 0 -5 30 -43 66 -84 64 -71 65
-74 50 -96 -9 -13 -16 -43 -16 -69 0 -98 82 -157 176 -126 l45 15 47 -54 c26
-30 52 -54 59 -54 6 0 37 23 68 52 l56 51 35 -16 c82 -39 161 -6 198 84 l15
36 -53 -5 c-63 -5 -109 15 -131 58 -19 37 -19 97 0 133 14 27 13 29 -22 67
l-35 40 -262 0 c-158 0 -268 -5 -278 -11z"/>
<path d="M3080 4935 l0 -65 -35 0 c-19 0 -35 -4 -35 -8 0 -16 47 -53 76 -61
29 -7 29 -7 32 -99 l3 -92 104 0 c70 0 105 -4 105 -11 0 -6 8 -27 17 -46 23
-50 87 -78 142 -63 46 12 91 60 91 96 0 24 2 24 85 24 l85 0 0 88 0 88 53 23
c28 13 64 23 78 22 32 -3 100 24 116 45 10 14 19 12 76 -20 35 -20 66 -36 69
-36 5 0 69 104 97 158 l12 22 -586 0 -585 0 0 -65z"/>
<path d="M640 4879 c0 -37 4 -58 10 -54 6 3 10 31 10 61 0 30 -4 54 -10 54 -6
0 -10 -27 -10 -61z"/>
<path d="M4830 4828 c0 -32 34 -85 59 -93 12 -3 21 -10 21 -14 0 -17 -69 -176
-77 -178 -5 -2 -58 15 -118 37 -70 27 -117 39 -132 35 -27 -7 -27 -10 17 -113
l27 -63 -33 -33 c-43 -43 -52 -93 -28 -142 26 -53 63 -76 119 -78 l47 -1 32
-77 c18 -43 35 -80 38 -83 3 -4 39 8 79 25 l74 31 -3 42 c-3 32 2 51 22 80
l26 38 0 271 0 270 -21 -5 c-16 -4 -28 1 -42 20 -19 23 -72 53 -97 53 -5 0
-10 -10 -10 -22z"/>
<path d="M448 4583 c12 -2 32 -2 45 0 12 2 2 4 -23 4 -25 0 -35 -2 -22 -4z"/>
<path d="M2 4326 l1 -235 31 -3 31 -3 3 -82 c2 -46 7 -83 12 -83 9 0 90 -78
118 -114 16 -20 52 -21 95 -2 35 14 62 48 73 90 6 25 8 26 85 26 l79 0 0 320
0 320 -88 0 -88 0 -14 -42 c-32 -93 -132 -115 -197 -44 -19 21 -33 46 -33 61
0 24 -3 25 -55 25 l-55 0 2 -234z"/>
<path d="M3090 3645 c-13 -14 -34 -53 -46 -86 -21 -58 -21 -62 -6 -117 11 -39
16 -100 17 -192 0 -116 -3 -141 -20 -175 -17 -35 -25 -40 -57 -43 -20 -2 -47
2 -59 9 -22 11 -22 14 -16 189 4 158 3 182 -13 218 -21 47 -47 58 -115 48 -36
-6 -49 -14 -72 -45 -15 -21 -41 -47 -59 -59 -29 -19 -97 -124 -140 -214 -16
-35 -16 -38 0 -63 10 -15 45 -39 79 -54 34 -15 76 -40 93 -54 18 -15 39 -27
48 -27 48 0 -27 -120 -117 -186 -65 -48 -77 -61 -77 -82 0 -17 97 -7 120 13 8
7 33 22 55 33 22 11 64 46 92 77 42 46 53 65 55 96 2 21 5 39 7 39 3 0 14 -9
25 -19 12 -11 49 -35 83 -54 54 -31 64 -34 80 -21 10 7 25 14 34 14 40 0 68
146 75 390 5 144 11 202 21 220 19 34 3 98 -35 141 l-27 30 -25 -26z m-295
-282 c14 -13 16 -34 13 -129 -2 -62 -5 -115 -8 -118 -3 -3 -45 15 -93 40 -106
55 -110 68 -39 148 66 75 97 90 127 59z"/>
<path d="M4951 3330 c-31 -32 -48 -84 -37 -117 5 -17 -5 -24 -65 -48 -62 -24
-70 -30 -65 -49 15 -61 186 -451 198 -451 10 0 14 69 16 348 1 211 -1 347 -7
347 -5 0 -23 -14 -40 -30z"/>
<path d="M0 2850 l0 -321 68 3 67 3 3 91 3 90 34 13 c53 19 85 64 85 118 0 25
-7 57 -16 73 -18 29 -62 60 -88 60 -14 0 -16 15 -16 95 l0 95 -70 0 -70 0 0
-320z"/>
<path d="M2649 2507 c-66 -40 -66 -40 -56 -72 15 -51 1 -99 -38 -134 -20 -17
-47 -34 -60 -37 -38 -9 -91 4 -124 31 l-29 25 -81 -47 c-44 -27 -80 -51 -81
-55 0 -4 19 -38 42 -77 l42 -70 42 6 c56 7 109 -12 138 -50 45 -61 46 -115 1
-181 l-24 -36 41 -67 c23 -38 43 -69 44 -71 1 -2 42 22 91 52 95 59 107 64
120 43 41 -67 154 -59 197 13 18 31 22 105 6 115 -19 12 -10 21 55 59 36 21
67 42 70 46 3 5 -19 47 -47 94 l-53 85 -46 1 c-76 0 -119 56 -105 134 4 19 13
39 21 46 12 10 6 24 -36 93 -28 45 -54 85 -57 88 -4 4 -37 -12 -73 -34z"/>
<path d="M4893 1810 c-40 -24 -63 -67 -63 -119 l0 -39 -70 -28 c-39 -15 -69
-32 -67 -38 3 -6 49 -118 103 -248 89 -215 101 -238 122 -238 13 0 37 13 53
29 35 36 38 80 8 122 l-21 29 21 34 c20 31 21 48 21 275 l0 241 -37 0 c-21 0
-52 -9 -70 -20z"/>
<path d="M0 1304 c0 -402 1 -426 18 -419 42 18 52 11 97 -72 l44 -81 -21 -14
-22 -15 23 -36 c12 -20 29 -37 36 -37 9 0 15 -14 17 -37 2 -31 7 -39 28 -43
43 -9 55 -22 102 -116 l47 -91 -75 -39 -75 -39 6 -50 c3 -27 8 -51 10 -53 2
-2 69 3 149 12 80 9 166 16 191 16 l45 0 -17 -36 c-17 -34 -17 -36 0 -45 21
-12 47 -61 47 -89 0 -20 4 -21 97 -18 l97 3 32 80 c35 86 35 84 -16 116 -10 6
-12 11 -4 16 7 6 8 37 1 106 -9 94 -10 97 -34 97 -37 0 -81 30 -99 68 -31 66
1 138 72 164 26 9 32 16 29 32 -2 12 -7 55 -10 96 l-6 76 -72 -8 c-133 -13
-147 -11 -147 16 0 19 13 33 60 62 33 20 60 39 60 42 0 2 -21 38 -47 79 -38
62 -44 78 -35 92 29 38 43 85 37 117 -14 75 -98 129 -164 106 -31 -11 -32 -11
-78 58 -25 39 -50 70 -54 70 -5 0 -45 -23 -89 -51 l-81 -52 -22 22 c-17 16
-18 21 -6 21 12 0 19 26 33 111 10 61 16 112 14 113 -2 2 -41 10 -88 20 -47 9
-87 21 -88 26 -2 6 -12 15 -23 20 -19 10 -19 1 -19 -416z m320 -474 c-6 -12
-14 -19 -17 -17 -2 3 1 15 7 27 6 12 14 19 17 17 2 -3 -1 -15 -7 -27z"/>
<path d="M2417 1613 l-58 -36 -25 24 c-21 19 -36 24 -80 24 -47 0 -57 -4 -86
-33 -30 -29 -33 -38 -33 -92 l0 -60 -88 -53 c-48 -30 -90 -56 -93 -60 -3 -3
17 -44 46 -92 44 -72 55 -85 72 -79 140 44 235 -104 136 -212 -19 -21 -19 -22
27 -98 25 -41 51 -78 56 -82 5 -3 41 13 79 35 38 23 72 41 75 41 4 0 20 -11
37 -25 23 -20 41 -25 82 -25 90 0 143 61 133 155 l-5 50 74 44 c71 41 74 44
61 65 -7 11 -30 49 -50 83 l-37 61 -35 -11 c-27 -8 -43 -7 -79 7 -96 37 -124
149 -54 223 l20 21 -48 81 c-27 45 -53 81 -59 80 -5 0 -36 -17 -68 -36z"/>
<path d="M4283 366 c-9 -28 -8 -36 3 -40 11 -4 14 5 14 34 0 22 -1 40 -3 40
-2 0 -8 -15 -14 -34z"/>
<path d="M2207 318 l-39 -41 -66 21 c-37 12 -69 18 -73 14 -4 -4 -26 -70 -49
-147 -24 -77 -45 -146 -47 -152 -4 -10 105 -13 524 -13 l530 0 -15 60 c-17 70
-14 69 -134 40 -53 -13 -84 -16 -86 -10 -2 6 -15 24 -29 40 -32 39 -91 57
-139 42 -29 -9 -48 -7 -105 10 -59 18 -68 24 -63 40 9 29 -14 85 -47 113 -23
19 -42 25 -76 25 -41 0 -50 -5 -86 -42z"/>
<path d="M4564 141 c-44 -62 -51 -68 -72 -60 -35 13 -79 11 -112 -6 -27 -14
-60 -51 -60 -67 0 -5 151 -8 335 -8 l335 0 0 45 c0 51 -1 51 -78 31 -40 -11
-54 -12 -57 -3 -2 7 -9 31 -15 55 -10 39 -12 41 -33 31 -12 -6 -30 -18 -39
-26 -15 -13 -23 -10 -81 31 -36 25 -67 46 -69 46 -3 0 -27 -31 -54 -69z"/>
</g>
</svg>
